# xmcd
#
# Track frame offsets:
# 182
# 15880
# 40520
# 62490
# 82745
# 106735
# 122792
# 147272
# 161542
# 184645
# 199682
# 221980
# 237492
# 258310
# 273925
#
# Disc length: 3853 seconds
#
#
# Revision: 3
# Processed by: cddbd v1.5.2PL0 Copyright (c) Steve Scherf et al.
# Submitted via: FreeRIP 2.51 
#
DISCID=c00f0b0f
DTITLE=B.B. King - Blues On The Bayou
DYEAR=1998
DGENRE=Blues
TTITLE0=Blues Boys Tune
TTITLE1=Bad Case Of Love
TTITLE2=I'll Survive
TTITLE3=Mean Ole' World
TTITLE4=Blues Man
TTITLE5=Broken Promise
TTITLE6=Darlin' what Happened
TTITLE7=Shake It Up And Go
TTITLE8=Blues We Like
TTITLE9=Good Man Gone Bad
TTITLE10=If I Lost You
TTITLE11=Tell Me Baby
TTITLE12=I Got Some Outside Help I Don't Need
TTITLE13=Blues In "G"
TTITLE14=If That Ain't It I Quit
EXTD=1995 MCA Records
EXTT0=
EXTT1=
EXTT2=
EXTT3=
EXTT4=
EXTT5=
EXTT6=
EXTT7=
EXTT8=
EXTT9=
EXTT10=
EXTT11=
EXTT12=
EXTT13=
EXTT14=
PLAYORDER=
